HIERARCHY
ROOT ui
{
	 OFFSET 0 0 0
	 CHANNELS 3 XPosition YPosition Z Position
	 EndSite
	 {
	 OFFSET 0 -1 0
	 }
}
ROOT li
{
	 OFFSET 0 0 0
	 CHANNELS 3 XPosition YPosition Z Position
	 EndSite
	 {
	 OFFSET 0 -1 0
	 }
}
ROOT ul
{
	 OFFSET 0 0 0
	 CHANNELS 3 XPosition YPosition Z Position
	 EndSite
	 {
	 OFFSET 0 -1 0
	 }
}
ROOT ll
{
	 OFFSET 0 0 0
	 CHANNELS 3 XPosition YPosition Z Position
	 EndSite
	 {
	 OFFSET 0 -1 0
	 }
}
ROOT tt
{
	 OFFSET 0 0 0
	 CHANNELS 3 XPosition YPosition Z Position
	 EndSite
	 {
	 OFFSET 0 -1 0
	 }
}
ROOT tb
{
	 OFFSET 0 0 0
	 CHANNELS 3 XPosition YPosition Z Position
	 EndSite
	 {
	 OFFSET 0 -1 0
	 }
}
ROOT td
{
	 OFFSET 0 0 0
	 CHANNELS 3 XPosition YPosition Z Position
	 EndSite
	 {
	 OFFSET 0 -1 0
	 }
}
ROOT v
{
	 OFFSET 0 0 0
	 CHANNELS 3 XPosition YPosition Z Position
	 EndSite
	 {
	 OFFSET 0 -1 0
	 }
}
ROOT bn
{
	 OFFSET 0 0 0
	 CHANNELS 3 XPosition YPosition Z Position
	 EndSite
	 {
	 OFFSET 0 -1 0
	 }
}
MOTION
Frames: 16
Frame Time: 0.002
-0.04590465927124023	5.650539994239807E-4	0		0.526218505859375	-2.62333349609375	0		-1.0036793212890625	0.29512518310546876	0		-0.48470635986328126	-3.156940185546875	0		2.29147802734375	-0.8203062744140625	0		3.913167236328125	-0.3598785400390625	0		5.13104248046875	-0.32313870239257814	0		5.88310107421875	0.384229736328125	0		-0.22671296691894532	5.9198603515625	0		
0.03912907028198242	-0.0034662899971008303	0		0.5562564086914062	-2.619386962890625	0		-0.990343505859375	0.3074600524902344	0		-0.5027792053222656	-3.15706103515625	0		2.254582275390625	-0.8172205810546875	0		3.877844482421875	-0.3268986511230469	0		5.11431494140625	-0.31256536865234374	0		5.88636962890625	0.3923984680175781	0		-0.09589083862304687	5.94200830078125	0		
-0.04367801284790039	0.004562542915344238	0		0.5473892211914062	-2.6077470703125	0		-0.9963309326171875	0.3041296691894531	0		-0.44110995483398435	-3.16966650390625	0		2.27754833984375	-0.8202574462890625	0		3.847827392578125	-0.33004739379882814	0		5.09655419921875	-0.3020030517578125	0		5.8893115234375	0.38453652954101564	0		-0.09650502014160156	5.94253759765625	0		
0.029275732040405275	-2.97870010137558E-4	0		0.569152587890625	-2.614698974609375	0		-1.0172340698242188	0.30705419921875	0		-0.4782014465332031	-3.166477294921875	0		2.226791259765625	-0.8059616088867188	0		3.84199755859375	-0.32166696166992187	0		5.0677294921875	-0.2932671813964844	0		5.8803740234375	0.384861328125	0		-0.11330155181884766	5.9343408203125	0		
-0.04476860427856445	-0.0024750490188598633	0		0.5322329711914062	-2.60259326171875	0		-1.0181996459960938	0.3075845947265625	0		-0.4474595947265625	-3.171568359375	0		2.2168203125	-0.8024469604492187	0		3.8351455078125	-0.3132991027832031	0		5.04993701171875	-0.2817650146484375	0		5.87941259765625	0.3850054016113281	0		-0.09778824615478515	5.94352294921875	0		
0.028146949768066407	-0.007404003143310547	0		0.5180721435546874	-2.602941162109375	0		-1.01003271484375	0.31591464233398436	0		-0.512439697265625	-3.159916259765625	0		2.19193017578125	-0.7936874389648437	0		3.79667529296875	-0.283375	0		5.03450146484375	-0.2503366546630859	0		5.87843701171875	0.3851138610839844	0		-0.09844956970214844	5.94396923828125	0		
-0.047618843078613284	0.006392269134521484	0		0.5132027587890625	-2.58749462890625	0		-1.0069427490234375	0.3203009033203125	0		-0.4766269836425781	-3.160171875	0		2.16703662109375	-0.78496240234375	0		3.787528564453125	-0.2900361022949219	0		5.012544921875	-0.2468277282714844	0		5.87745703125	0.3851846008300781	0		-0.2325006103515625	5.9248583984375	0		
0.030206085205078125	-0.0037145891189575195	0		0.5042699279785157	-2.576012451171875	0		-1.0187484130859374	0.329925048828125	0		-0.523548095703125	-3.1459248046875	0		2.15426220703125	-0.7704993286132813	0		3.7700068359375	-0.2635731506347656	0		4.965236328125	-0.20887574768066405	0		5.88448388671875	0.38506756591796876	0		-0.09979141998291016	5.94374853515625	0		
-0.05363810348510742	0.00415622091293335	0		0.521303466796875	-2.56805908203125	0		-1.0188697509765625	0.32128369140625	0		-0.5005657958984375	-3.139027099609375	0		2.144025634765625	-0.7821281127929688	0		3.74398828125	-0.26499334716796874	0		4.96012353515625	-0.21575424194335938	0		5.8835341796875	0.3850621948242188	0		-0.10041539764404298	5.9450732421875	0		
0.019324621200561522	-0.0019578399658203125	0		0.49429754638671874	-2.56432763671875	0		-1.0256883544921875	0.32672116088867187	0		-0.5134918212890625	-3.129505126953125	0		2.131318603515625	-0.7677474365234375	0		3.726534912109375	-0.23860577392578125	0		4.9193388671875	-0.2069961700439453	0		5.87462548828125	0.38517184448242187	0		-0.10104930114746094	5.9443505859375	0		
-0.05358843231201172	-0.0033829760551452636	0		0.5341986694335937	-2.569903564453125	0		-1.021466796875	0.3308974609375	0		-0.4965584411621094	-3.13159814453125	0		2.063742919921875	-0.7493758544921875	0		3.713486328125	-0.24734483337402344	0		4.901650390625	-0.19670413208007811	0		5.88690478515625	0.39185186767578123	0		-0.0996592025756836	5.9425380859375	0		
0.02970791244506836	1.976870000362396E-4	0		0.47874066162109374	-2.54572998046875	0		-1.0063316040039063	0.3258080139160156	0		-0.4980708923339844	-3.109395751953125	0		2.06292529296875	-0.7493070678710938	0		3.66837939453125	-0.210509521484375	0		4.87305224609375	-0.186239990234375	0		5.8810087890625	0.38483935546875	0		-0.10114804077148437	5.9437255859375	0		
0.025982545852661132	-0.002640742063522339	0		0.5230700073242187	-2.540496826171875	0		-0.947903076171875	0.3298389892578125	0		-0.5035671691894531	-3.093177490234375	0		2.0397393798828123	-0.7218579711914063	0		3.633537353515625	-0.2189133758544922	0		4.83049609375	-0.17954583740234376	0		5.872357421875	0.38484918212890623	0		-0.11675399017333984	5.93412109375	0		
0.02545264434814453	-0.002597843885421753	0		0.488716796875	-2.52583056640625	0		-0.9543247680664062	0.33503103637695314	0		-0.5129833984375	-3.080946533203125	0		2.024090576171875	-0.7266050415039063	0		3.6042509765625	-0.2054578857421875	0		4.81313330078125	-0.17036170959472657	0		5.875689453125	0.3765994873046875	0		-0.11706229400634766	5.93416943359375	0		
0.01610304832458496	-0.001448194980621338	0		0.5074135437011719	-2.518228759765625	0		-0.95875927734375	0.3311183166503906	0		-0.5500286865234375	-3.058251708984375	0		1.9850457763671876	-0.7079534912109375	0		3.6038740234375	-0.20559449768066407	0		4.77295458984375	-0.15977981567382812	0		5.871484375	0.3844639892578125	0		-0.11625991058349609	5.9331337890625	0		
0.02488638114929199	-0.0027056760787963867	0		0.45734884643554685	-2.507379638671875	0		-1.029857421875	0.33640704345703126	0		-0.5292728271484375	-3.05672265625	0		1.975870361328125	-0.70592236328125	0		3.559364990234375	-0.16892872619628907	0		4.75494775390625	-0.14965414428710938	0		5.871298828125	0.3842196960449219	0		-0.10307029724121093	5.9448017578125	0		
